<?xml version="1.0" encoding="UTF-8"?>
<svg width="800" height="800" viewBox="0 0 800 800" xmlns="http://www.w3.org/2000/svg">
  <circle cx="400" cy="400" r="400" fill="#FFE4C4"/>
  <g transform="translate(100, 100) scale(0.75)">
    <path d="M400 150 C 300 150, 200 250, 200 350 C 200 450, 300 550, 400 550 C 500 550, 600 450, 600 350 C 600 250, 500 150, 400 150" fill="#90EE90"/>
    <path d="M300 300 L 350 400 L 400 300" stroke="#4169E1" stroke-width="20" fill="none"/>
    <path d="M400 300 L 450 400 L 500 300" stroke="#4169E1" stroke-width="20" fill="none"/>
    <path d="M350 450 C 350 450, 400 500, 450 450" stroke="#FF69B4" stroke-width="20" fill="none"/>
    <circle cx="350" cy="250" r="20" fill="#4169E1"/>
    <circle cx="450" cy="250" r="20" fill="#4169E1"/>
    <path d="M200 350 C 200 350, 300 500, 400 500 C 500 500, 600 350, 600 350" fill="#90EE90"/>
  </g>
</svg>